<?xml version="1.0" standalone="no"?>
<!DOCTYPE svg PUBLIC "-//W3C//DTD SVG 20010904//EN"
 "http://www.w3.org/TR/2001/REC-SVG-20010904/DTD/svg10.dtd">
<svg version="1.0" xmlns="http://www.w3.org/2000/svg"
 width="320.000000pt" height="64.000000pt" viewBox="0 0 320.000000 64.000000"
 preserveAspectRatio="xMidYMid meet">

<g transform="translate(0.000000,64.000000) scale(0.100000,-0.100000)"
fill="#000000" stroke="none">
<path d="M990 359 c0 -72 5 -139 10 -150 10 -19 59 -49 80 -49 5 0 10 18 10
40 0 22 -4 40 -10 40 -6 0 -10 48 -10 125 l0 125 -40 0 -40 0 0 -131z"/>
<path d="M1422 355 c3 -130 4 -135 29 -161 18 -18 41 -28 73 -31 l46 -6 0 41
c0 39 -2 41 -32 44 -33 3 -33 4 -36 61 l-3 57 36 0 c34 0 35 1 35 40 0 39 -1
40 -35 40 -31 0 -35 3 -35 25 0 23 -4 25 -41 25 l-41 0 4 -135z"/>
<path d="M1600 470 c0 -17 7 -20 40 -20 33 0 40 3 40 20 0 17 -7 20 -40 20
-33 0 -40 -3 -40 -20z"/>
<path d="M2430 365 c0 -71 5 -135 11 -149 18 -39 71 -59 147 -54 56 4 68 8 88
32 23 26 24 35 24 162 l0 134 -35 0 -35 0 0 -112 c0 -62 -4 -119 -9 -126 -5
-9 -25 -12 -57 -10 l-49 3 -3 123 -3 122 -39 0 -40 0 0 -125z"/>
<path d="M3040 365 l0 -125 40 0 40 0 0 125 0 125 -40 0 -40 0 0 -125z"/>
<path d="M140 422 c-49 -24 -61 -54 -58 -135 3 -58 8 -71 31 -95 26 -26 33
-27 137 -30 l110 -4 0 41 0 40 -97 3 -98 3 0 55 0 55 55 0 c60 0 60 0 45 -63
l-7 -33 38 3 c34 3 39 6 52 47 28 83 -20 131 -133 131 -22 0 -56 -8 -75 -18z"/>
<path d="M394 425 c-3 -8 -4 -57 -2 -110 3 -88 5 -97 31 -122 23 -24 36 -28
83 -28 48 0 59 4 79 27 20 24 57 124 80 221 7 26 6 27 -32 27 l-40 0 -30 -97
c-29 -95 -31 -98 -59 -98 l-29 0 -3 98 -3 97 -35 0 c-21 0 -37 -6 -40 -15z"/>
<path d="M742 426 c-45 -21 -66 -73 -59 -150 4 -46 11 -65 31 -85 24 -24 34
-26 107 -26 78 0 81 1 110 33 26 29 29 39 29 102 0 62 -3 73 -28 101 -24 27
-35 31 -92 35 -44 3 -76 0 -98 -10z m133 -126 l0 -55 -55 0 -55 0 -3 44 c-5
67 0 72 60 69 l53 -3 0 -55z"/>
<path d="M1120 340 c0 -54 5 -110 11 -124 18 -39 71 -59 147 -54 56 4 68 8 88
32 22 25 24 36 24 137 l0 109 -35 0 -35 0 0 -87 c0 -49 -4 -94 -9 -101 -5 -9
-25 -12 -57 -10 l-49 3 -3 98 -3 97 -39 0 -40 0 0 -100z"/>
<path d="M1770 429 c-46 -18 -60 -47 -60 -127 0 -40 5 -82 10 -93 36 -66 214
-66 250 0 15 29 12 148 -5 180 -8 16 -28 34 -46 40 -39 13 -115 13 -149 0z
m128 -131 l3 -58 -56 0 -55 0 0 53 c0 30 3 57 7 61 4 4 28 6 53 4 l45 -3 3
-57z"/>
<path d="M2083 433 c-12 -2 -34 -18 -48 -34 -23 -28 -25 -38 -25 -135 l0 -104
40 0 39 0 3 98 3 97 55 0 55 0 3 -97 3 -98 39 0 40 0 0 90 c0 113 -16 155 -64
175 -33 14 -94 17 -143 8z"/>
<path d="M2792 426 c-49 -23 -62 -64 -62 -201 l0 -115 40 0 39 0 3 122 3 123
55 0 55 0 0 -55 0 -55 -42 -3 -43 -3 0 -41 0 -40 57 4 c48 4 61 10 86 38 28
31 29 36 25 106 -3 64 -7 78 -29 100 -22 21 -38 27 -90 30 -43 3 -75 0 -97
-10z"/>
<path d="M1600 290 l0 -130 40 0 40 0 0 130 0 130 -40 0 -40 0 0 -130z"/>
<path d="M3040 190 c0 -28 2 -30 40 -30 38 0 40 2 40 30 0 28 -2 30 -40 30
-38 0 -40 -2 -40 -30z"/>
</g>
</svg>
