<?xml version="1.0" encoding="UTF-8" standalone="no"?>
<svg
   version="1.0"
   width="798"
   height="254"
   viewBox="0 0 598.49998 190.5"
   preserveAspectRatio="xMidYMid meet"
   id="svg258"
   sodipodi:docname="mobility.svg"
   inkscape:version="1.1.1 (3bf5ae0d25, 2021-09-20, custom)"
   xmlns:inkscape="http://www.inkscape.org/namespaces/inkscape"
   xmlns:sodipodi="http://sodipodi.sourceforge.net/DTD/sodipodi-0.dtd"
   xmlns="http://www.w3.org/2000/svg"
   xmlns:svg="http://www.w3.org/2000/svg">
  <defs
     id="defs262" />
  <sodipodi:namedview
     id="namedview260"
     pagecolor="#ffffff"
     bordercolor="#666666"
     borderopacity="1.0"
     inkscape:pageshadow="2"
     inkscape:pageopacity="0.0"
     inkscape:pagecheckerboard="0"
     inkscape:document-units="px"
     showgrid="false"
     units="in"
     inkscape:zoom="0.84263834"
     inkscape:cx="468.17238"
     inkscape:cy="197.59367"
     inkscape:window-width="1350"
     inkscape:window-height="728"
     inkscape:window-x="6"
     inkscape:window-y="30"
     inkscape:window-maximized="1"
     inkscape:current-layer="svg258"
     height="254px" />
  <g
     transform="matrix(0.05954377,0,0,-0.05954377,-1.6680635,144.23209)"
     fill="#000000"
     stroke="none"
     id="g256"
     style="fill:#cccccc">
    <path
       d="m 4912,1309 c -88,-28 -154,-92 -177,-172 -37,-127 14,-232 140,-291 27,-13 115,-40 195,-61 164,-42 214,-65 247,-114 54,-80 5,-185 -101,-216 -64,-19 -190,-19 -247,0 -84,29 -158,114 -159,183 0,24 -14,27 -82,16 -34,-6 -38,-10 -38,-35 0,-46 40,-139 77,-180 95,-105 285,-146 462,-100 113,30 177,82 217,177 24,57 22,152 -6,208 -42,88 -119,131 -323,182 -224,55 -267,83 -267,174 0,105 157,169 317,129 61,-16 118,-71 134,-131 l 13,-46 60,5 c 34,3 62,7 63,8 2,1 -4,27 -12,59 -40,152 -159,227 -359,225 -62,0 -111,-7 -154,-20 z"
       id="path216"
       style="fill:#cccccc" />
    <path
       d="M 70,825 V 330 h 60 60 v 412 c 0,226 3,409 6,406 3,-3 67,-188 142,-410 L 476,335 h 59 60 l 123,355 c 68,195 131,375 140,400 17,44 17,33 20,-358 l 2,-403 63,3 62,3 3,493 2,492 h -89 -90 l -19,-52 C 802,1239 737,1052 669,853 601,654 543,494 540,498 c -3,4 -66,190 -140,414 l -135,407 -97,1 H 70 Z"
       id="path218"
       style="fill:#cccccc" />
    <path
       d="m 1962,828 3,-493 58,-3 57,-3 v 41 42 l 41,-36 c 54,-46 97,-59 172,-54 183,12 298,177 284,407 -12,209 -123,331 -299,331 -66,0 -108,-15 -154,-53 -18,-15 -35,-27 -38,-27 -3,0 -6,77 -6,170 v 170 h -60 -60 z m 371,121 c 84,-43 122,-127 121,-265 -1,-80 -4,-100 -29,-149 -78,-160 -275,-150 -331,18 -21,65 -21,206 0,266 22,59 57,104 98,124 38,19 110,22 141,6 z"
       id="path220"
       style="fill:#cccccc" />
    <path
       d="m 2730,1250 v -70 h 60 60 v 70 70 h -60 -60 z"
       id="path222"
       style="fill:#cccccc" />
    <path
       d="M 3030,825 V 330 h 65 65 v 495 495 h -65 -65 z"
       id="path224"
       style="fill:#cccccc" />
    <path
       d="m 3340,1250 v -70 h 60 60 v 70 70 h -60 -60 z"
       id="path226"
       style="fill:#cccccc" />
    <path
       d="m 6320,1250 v -71 l 58,3 57,3 3,68 3,67 h -61 -60 z"
       id="path228"
       style="fill:#cccccc" />
    <path
       d="m 9540,1300 c 0,-17 7,-20 45,-20 h 45 v -115 c 0,-108 1,-115 20,-115 19,0 20,7 20,115 v 115 h 45 c 38,0 45,3 45,20 0,19 -7,20 -110,20 -103,0 -110,-1 -110,-20 z"
       id="path230"
       style="fill:#cccccc" />
    <path
       d="m 9790,1186 v -136 h 25 c 25,0 25,0 26,103 l 1,102 32,-100 c 29,-90 35,-100 56,-100 22,0 27,10 56,100 l 32,100 1,-102 c 1,-96 2,-103 21,-103 19,0 20,7 20,136 v 135 l -32,-3 c -32,-3 -33,-5 -62,-100 -17,-54 -32,-98 -35,-98 -3,0 -20,44 -36,98 l -31,97 -37,3 -37,3 z"
       id="path232"
       style="fill:#cccccc" />
    <path
       d="m 3718,1258 -48,-31 v -88 -89 h -45 -45 v -50 -50 h 45 44 l 3,-275 3,-275 33,-32 c 31,-32 36,-33 122,-36 l 90,-4 v 25 c 0,13 -3,39 -6,56 -6,29 -9,31 -50,31 -74,0 -74,-1 -74,270 v 239 l 58,3 57,3 v 45 45 l -57,3 -58,3 v 119 c 0,90 -3,120 -12,119 -7,0 -34,-14 -60,-31 z"
       id="path234"
       style="fill:#cccccc" />
    <path
       d="m 1370,1044 c -46,-17 -101,-53 -133,-89 -35,-39 -68,-124 -76,-195 -22,-211 51,-361 205,-420 50,-19 72,-21 141,-17 103,7 176,40 232,103 53,61 72,119 78,241 5,88 2,112 -17,173 -27,85 -80,150 -154,187 -65,34 -205,43 -276,17 z m 197,-99 c 84,-35 127,-119 127,-250 1,-107 -14,-153 -63,-208 -61,-68 -144,-86 -227,-48 -73,33 -112,103 -121,216 -14,180 68,305 200,305 26,0 64,-7 84,-15 z"
       id="path236"
       style="fill:#cccccc" />
    <path
       d="m 5815,1046 c -103,-32 -162,-91 -196,-194 -28,-84 -31,-231 -6,-312 43,-145 173,-230 331,-218 129,11 234,101 260,224 7,29 5,32 -25,38 -72,14 -84,10 -98,-39 -45,-154 -258,-168 -334,-22 -39,75 -37,258 2,336 34,65 82,95 160,99 85,4 123,-18 154,-89 18,-40 26,-48 42,-44 11,2 31,5 45,5 47,1 52,11 33,65 -25,67 -85,126 -152,148 -62,20 -158,21 -216,3 z"
       id="path238"
       style="fill:#cccccc" />
    <path
       d="m 6811,1049 c -41,-13 -97,-47 -135,-85 -72,-73 -111,-233 -87,-360 24,-130 76,-204 180,-253 49,-23 69,-26 156,-26 88,1 106,4 151,27 27,15 66,44 85,65 33,37 77,119 68,128 -3,2 -30,7 -60,11 l -55,6 -31,-50 c -20,-33 -46,-58 -72,-71 -70,-36 -171,-22 -230,32 -32,29 -71,114 -71,155 v 32 h 265 266 l -6,63 c -18,178 -83,276 -214,322 -48,17 -157,19 -210,4 z m 188,-103 c 56,-30 111,-114 111,-173 0,-10 -47,-13 -200,-13 h -199 l 5,33 c 10,54 51,114 97,141 49,30 140,35 186,12 z"
       id="path240"
       style="fill:#cccccc" />
    <path
       d="m 7622,1048 c -18,-6 -52,-28 -76,-50 -24,-21 -46,-38 -49,-38 -3,0 -7,19 -9,43 -3,38 -6,42 -32,45 -15,2 -39,1 -52,-2 l -24,-6 2,-353 3,-352 h 60 60 l 5,250 c 3,153 10,260 17,275 24,53 101,100 165,100 17,0 51,-9 74,-20 71,-35 74,-49 74,-344 V 340 l 24,-6 c 13,-3 38,-4 57,-2 l 34,3 3,280 2,281 -27,54 c -38,74 -95,104 -203,107 -41,1 -90,-3 -108,-9 z"
       id="path242"
       style="fill:#cccccc" />
    <path
       d="m 8325,1042 c -75,-28 -90,-38 -129,-83 -52,-61 -78,-150 -79,-267 -1,-173 51,-278 169,-337 53,-27 69,-30 149,-30 97,0 136,14 204,71 34,28 74,99 85,150 7,29 5,32 -25,38 -57,11 -89,7 -89,-11 0,-40 -43,-104 -86,-129 -38,-23 -54,-26 -105,-22 -87,6 -145,58 -170,152 -18,67 -7,233 19,283 34,66 82,96 158,101 82,5 123,-18 156,-88 18,-40 27,-49 43,-45 11,3 31,5 45,5 42,1 51,12 40,52 -16,57 -65,115 -122,144 -71,37 -189,43 -263,16 z"
       id="path244"
       style="fill:#cccccc" />
    <path
       d="m 8996,1036 c -75,-32 -119,-75 -158,-154 -27,-55 -32,-76 -36,-167 -6,-140 17,-221 85,-293 58,-62 121,-91 211,-99 134,-11 246,35 303,124 29,47 46,90 37,98 -2,2 -29,7 -59,11 -55,6 -56,6 -68,-25 -19,-44 -83,-99 -126,-107 -130,-24 -235,56 -261,199 l -6,37 h 266 266 v 53 c 0,139 -67,259 -174,314 -76,39 -199,43 -280,9 z m 249,-110 c 40,-31 74,-94 75,-138 v -28 h -195 c -189,0 -195,1 -195,20 0,32 28,92 58,124 41,44 78,57 153,53 55,-2 73,-7 104,-31 z"
       id="path246"
       style="fill:#cccccc" />
    <path
       d="M 2730,690 V 330 h 60 60 v 360 360 h -60 -60 z"
       id="path248"
       style="fill:#cccccc" />
    <path
       d="M 3340,690 V 330 h 60 60 v 360 360 h -60 -60 z"
       id="path250"
       style="fill:#cccccc" />
    <path
       d="m 3963,1033 c 2,-10 61,-168 131,-350 69,-183 126,-342 126,-353 0,-35 -48,-128 -75,-146 -19,-12 -45,-18 -83,-17 l -55,2 6,-51 c 4,-29 12,-55 19,-60 21,-13 117,-9 146,6 39,20 76,64 105,121 13,28 90,226 170,440 80,215 149,398 152,408 7,16 2,18 -55,15 l -63,-3 -73,-200 C 4373,735 4328,607 4314,560 l -26,-84 -58,169 c -32,94 -77,223 -100,288 l -43,117 h -64 c -57,0 -65,-2 -60,-17 z"
       id="path252"
       style="fill:#cccccc" />
    <path
       d="M 6320,690 V 329 l 58,3 57,3 v 355 355 l -57,3 -58,3 z"
       id="path254"
       style="fill:#cccccc" />
  </g>
</svg>
