<?xml version="1.0" encoding="UTF-8" standalone="no"?>
<svg
   version="1.0"
   width="795"
   height="252"
   viewBox="0 0 596.25 189"
   preserveAspectRatio="xMidYMid meet"
   id="svg42"
   sodipodi:docname="simplewater.svg"
   inkscape:version="1.1.1 (3bf5ae0d25, 2021-09-20, custom)"
   xmlns:inkscape="http://www.inkscape.org/namespaces/inkscape"
   xmlns:sodipodi="http://sodipodi.sourceforge.net/DTD/sodipodi-0.dtd"
   xmlns="http://www.w3.org/2000/svg"
   xmlns:svg="http://www.w3.org/2000/svg">
  <defs
     id="defs46" />
  <sodipodi:namedview
     id="namedview44"
     pagecolor="#ffffff"
     bordercolor="#666666"
     borderopacity="1.0"
     inkscape:pageshadow="2"
     inkscape:pageopacity="0.0"
     inkscape:pagecheckerboard="0"
     inkscape:document-units="px"
     showgrid="false"
     units="px"
     height="252px"
     inkscape:zoom="0.75255466"
     inkscape:cx="545.47533"
     inkscape:cy="235.86327"
     inkscape:window-width="1350"
     inkscape:window-height="728"
     inkscape:window-x="6"
     inkscape:window-y="30"
     inkscape:window-maximized="1"
     inkscape:current-layer="svg42" />
  <g
     id="g817"
     transform="matrix(0.42350136,0,0,0.42350136,-19.986503,-227.25852)">
    <path
       d="m 199.7,694.6 c -1.2,1.3 -0.8,19.9 0.5,21.2 1.3,1.3 15.4,1.7 19.6,0.6 2.2,-0.6 2.3,-0.9 2,-11.3 l -0.3,-10.6 -10.6,-0.3 c -5.8,-0.1 -10.8,0.1 -11.2,0.4 z"
       id="path4"
       style="fill:#cccccc;stroke:none;stroke-width:0.1" />
    <path
       d="m 618,694.6 c -1.3,0.4 -1.5,8.3 -1.3,64.6 0.1,35.2 0.5,64.3 0.7,64.6 0.3,0.2 5.8,0.5 12.3,0.5 h 11.8 v -64.9 -64.9 l -11,-0.1 c -6,-0.1 -11.7,0 -12.5,0.2 z"
       id="path6"
       style="fill:#cccccc;stroke:none;stroke-width:0.1" />
    <path
       d="m 1186.1,699.3 c -0.4,0.4 -0.6,5.4 -0.3,11 0.4,8.3 0.1,11 -1.2,13.5 -1.7,3.3 -2.9,3.7 -9.3,3.3 -4.2,-0.3 -4.9,1.3 -4.3,10.6 l 0.5,7.8 5.5,0.3 c 9.7,0.6 9.1,-1.8 8.9,40.3 -0.1,20.2 0.1,37.1 0.4,37.6 0.6,0.9 21.3,1 22.3,0.1 0.3,-0.3 0.5,-17.2 0.5,-37.5 -0.1,-22.1 0.3,-37.4 0.9,-38.3 0.7,-1.2 4.2,-1.6 16.7,-2 l 15.8,-0.5 0.2,-7 c 0.3,-12.5 1.5,-11.6 -15.4,-11.4 -19,0.1 -18.6,0.4 -18.2,-15.8 0.2,-6.1 0,-11.5 -0.4,-11.9 -0.9,-1 -21.6,-1.1 -22.6,-0.1 z"
       id="path8"
       style="fill:#cccccc;stroke:none;stroke-width:0.1" />
    <path
       d="m 1437.6,728.7 c -4.7,0.7 -13.4,6.2 -17.3,10.9 -6.8,8 -7.6,13.2 -8,51 l -0.4,33.1 2.3,0.7 c 2.9,0.7 18.6,0.8 21.5,0 l 2.2,-0.6 0.3,-34.5 0.3,-34.4 4.9,-4.5 4.8,-4.6 -0.7,-7.6 c -0.9,-10.4 -1.3,-10.7 -9.9,-9.5 z"
       id="path10"
       style="fill:#cccccc;stroke:none;stroke-width:0.1" />
    <path
       d="m 90,728 c -13.5,0.4 -24.5,0.8 -24.6,0.8 0,0.1 -1.8,1.8 -4,3.8 l -3.9,3.6 v 18.3 18.2 L 61,776 c 1.9,1.8 4.8,3.7 6.5,4.1 1.6,0.5 19.4,0.9 39.5,0.9 25.6,0 36.9,0.3 37.7,1.1 0.6,0.6 2.2,1.7 3.5,2.3 2,1 2.3,2 2.6,8.1 0.4,9.1 -0.2,11.1 -3.8,13 -2.5,1.3 -9.5,1.5 -46.9,1.5 H 56.2 l 0.1,8.1 c 0,6.3 0.4,8.2 1.6,8.7 0.9,0.4 24.8,0.5 53.1,0.2 l 51.5,-0.5 4.7,-3.4 c 2.6,-1.8 5,-4.1 5.3,-5 1.2,-2.8 1.8,-21.4 1.1,-29.3 -0.6,-6 -1.3,-8.2 -3.3,-10.7 -1.4,-1.7 -3.1,-3.1 -3.8,-3.1 -0.7,0 -2.3,-0.9 -3.7,-1.9 -2.3,-1.9 -4.6,-2 -41.1,-2.3 -30,-0.2 -38.9,-0.6 -39.9,-1.6 -0.8,-0.8 -1.4,-4.7 -1.6,-10.2 -0.5,-11.7 -0.9,-11.5 21.1,-11.6 9.2,-0.1 17,-0.4 17.3,-0.7 0.8,-0.8 0.9,-14.1 0,-15.5 -0.4,-0.6 -1.5,-1.1 -2.4,-1 -0.9,0.1 -12.7,0.5 -26.2,0.8 z"
       id="path12"
       style="fill:#cccccc;stroke:none;stroke-width:0.1" />
    <path
       d="m 268.4,728.9 c -2.3,0.4 -4.9,1.5 -5.8,2.4 -1,0.9 -2.1,1.7 -2.6,1.7 -2,0 -6.2,5.1 -7.2,8.7 -0.5,2.1 -1.6,4.5 -2.4,5.4 -1.2,1.3 -1.4,8 -1.2,39.3 l 0.3,37.7 10.3,0.1 c 5.6,0 10.5,-0.2 10.8,-0.5 0.3,-0.3 0.6,-15.1 0.7,-32.9 l 0.2,-32.3 2.8,-4.3 c 1.5,-2.3 3.2,-4.2 3.9,-4.2 0.6,0 1.7,-0.8 2.4,-1.8 1.1,-1.5 3.3,-1.7 20.4,-1.7 17.2,0 19.2,0.2 20.1,1.7 0.6,1 1.8,1.8 2.8,1.8 1,0 3.2,1.7 4.7,3.7 l 2.9,3.8 0.2,32.7 c 0.1,18 0.4,33.1 0.6,33.5 0.6,1 19.3,0.1 20.3,-0.9 0.4,-0.5 0.2,-1.9 -0.4,-3.3 -1.5,-3.2 -1.7,-52.4 -0.3,-56.9 0.6,-1.7 1.4,-4.7 1.8,-6.6 0.6,-2.4 1.8,-3.9 3.8,-5 1.6,-0.8 3.5,-2.2 4.2,-3 1.8,-2.3 39.9,-2.2 41.6,0.1 0.7,0.9 2.2,2.1 3.3,2.7 3.8,2 4.4,8 4.4,41.6 v 31.5 l 10.1,0.3 c 11.9,0.4 14.4,-0.3 13.5,-3.5 -0.3,-1.2 -0.7,-17.7 -0.9,-36.7 -0.5,-36 -1.2,-43.3 -4.7,-45.7 -1.1,-0.8 -2,-2 -2,-2.8 0,-0.7 -0.9,-1.7 -2,-2 -1.1,-0.3 -2.6,-1.3 -3.4,-2.1 -2.8,-2.8 -12.5,-3.6 -38.5,-3.2 -26.1,0.3 -29.2,0.8 -31.4,4.4 -0.4,0.8 -1.7,1.4 -2.7,1.4 -1.1,0 -2,0.7 -2,1.5 0,2.9 -3,7.5 -4.9,7.5 -2,0 -7.1,-5.3 -7.1,-7.3 -0.1,-0.7 -2.2,-2.6 -4.8,-4.2 l -4.7,-3 -26.5,-0.2 c -14.6,-0.1 -28.4,0.2 -30.6,0.6 z"
       id="path14"
       style="fill:#cccccc;stroke:none;stroke-width:0.1" />
    <path
       d="m 688,728.9 c -8.1,1.2 -20,8.5 -20,12.3 0,0.6 -0.8,2 -1.7,3.1 -1.6,1.7 -1.8,4.9 -2.1,30.2 -0.3,22.7 0,28.5 1,29.6 0.8,0.8 2,3 2.8,4.9 1.8,4.6 5.2,7.8 12,11.4 l 5.5,2.9 25.5,0.4 c 15.2,0.2 26.1,0 26.9,-0.6 1.2,-0.8 1.3,-1.4 0.3,-3.6 -0.9,-1.9 -0.9,-3.2 -0.2,-4.6 0.9,-1.5 0.7,-2.5 -1,-4.7 l -2.2,-2.7 -14.1,0.3 c -16.9,0.4 -27.6,-0.9 -29.4,-3.5 -0.7,-1 -1.7,-2.4 -2.3,-3.1 -3.3,-3.8 -3.8,-12.4 -1,-15.2 1.9,-1.9 3.3,-2 53.5,-2 H 793 v -19.9 c 0,-11.9 -0.4,-20.2 -1,-20.6 -0.5,-0.3 -1.8,-2.6 -2.9,-5 -1.1,-2.5 -2.5,-4.5 -3.1,-4.5 -0.6,0 -2.9,-1.2 -5.2,-2.8 l -4.2,-2.7 -42,-0.1 c -23.2,-0.1 -44.1,0.1 -46.6,0.5 z m 77.1,17.3 c 3.5,3 4.9,6.7 4.9,13.6 0,5.9 -0.3,7.2 -2.3,9 -2.3,2.2 -2.5,2.2 -40.2,2 l -37.8,-0.3 -1.9,-2.6 c -1.7,-2.2 -1.9,-3.5 -1.3,-8.2 0.4,-3.2 1.5,-6.6 2.6,-7.8 1.1,-1.2 1.9,-2.8 1.9,-3.5 0,-2.6 7,-3.2 39.6,-3.3 25,-0.1 33.4,0.2 34.5,1.1 z"
       id="path16"
       style="fill:#cccccc;stroke:none;stroke-width:0.1" />
    <path
       d="m 912,724.7 c -2.6,1 -9,8.4 -9,10.3 0,1 -1.1,2.5 -2.5,3.4 -1.4,0.9 -2.5,2.2 -2.5,2.9 0,1.1 -4.8,11.7 -7.1,15.7 -3.4,5.9 -12.9,25.4 -12.9,26.5 0,2 -4.2,6.3 -6.5,6.7 -1.6,0.2 -2.4,-0.9 -4.1,-5.7 -6.4,-17.4 -18.3,-43.2 -22.1,-47.6 -0.8,-0.9 -1.8,-3.2 -2.4,-5.2 l -0.9,-3.5 -10.8,-0.4 c -13.8,-0.6 -14.2,-0.3 -9.8,8.2 1.8,3.6 3.6,8.1 4,10.2 0.3,2 1.3,3.9 2.1,4.2 0.8,0.3 1.8,2.4 2.1,4.7 0.4,2.2 1.5,4.8 2.4,5.7 1,1 2.1,3.3 2.5,5.2 0.4,1.9 1.5,4.8 2.5,6.5 1,1.6 2.3,4.8 3,7 0.7,2.2 1.9,4.5 2.6,5.3 0.7,0.7 1.6,2.9 2,5 0.4,2 1.5,4.5 2.4,5.4 1,0.9 2.1,3.5 2.5,5.7 0.4,2.2 1.3,4.5 2,5.1 0.8,0.7 2.1,3.6 3,6.6 0.8,3 1.9,5.4 2.4,5.4 0.5,0 1.2,1.1 1.5,2.4 0.3,1.3 2.2,3.6 4.2,5.1 3.1,2.4 4.3,2.7 8.6,2.3 2.8,-0.3 5.3,-1 5.7,-1.5 0.3,-0.6 1.6,-1.5 2.9,-2.2 1.2,-0.6 2.2,-1.8 2.2,-2.5 0,-0.7 0.8,-2.1 1.9,-3 1,-0.9 2.1,-3 2.4,-4.5 0.3,-1.6 1.8,-4.6 3.2,-6.6 1.4,-2.1 2.5,-4.4 2.5,-5.2 0,-0.8 0.9,-2.6 2,-4 1.1,-1.4 2,-3.3 2,-4.3 0,-1 0.9,-2.8 1.9,-4.2 1.1,-1.3 2.3,-3.8 2.7,-5.4 0.4,-1.6 1.4,-3.8 2.4,-4.9 1,-1.1 2.3,-3.8 3,-6 0.7,-2.2 1.8,-4.6 2.4,-5.4 0.6,-0.7 1.8,-3.4 2.6,-6 1.5,-4.5 1.6,-4.6 5.5,-4.6 4,0 4,0.1 5.8,5.5 1,3 2.4,6.2 3.2,7 0.7,0.8 1.8,3.4 2.4,5.6 0.6,2.3 1.7,4.7 2.5,5.3 0.7,0.6 1.6,2.6 2,4.3 0.3,1.7 1.2,3.9 2,4.7 0.7,0.9 1.9,3.4 2.6,5.6 0.7,2.2 2.1,5.1 3.1,6.4 1,1.2 2.1,3.8 2.5,5.6 0.3,1.9 1.5,4.1 2.5,5.1 1,0.9 1.9,2.8 1.9,4.2 0,2.8 5.7,8.8 9.9,10.4 3.2,1.2 10.8,0.2 11.8,-1.6 0.5,-0.7 1.8,-1.8 3,-2.4 1.2,-0.7 2.4,-2.5 2.8,-4.2 0.4,-1.7 1.4,-3.7 2.2,-4.6 0.8,-0.8 1.9,-3.3 2.5,-5.6 0.5,-2.2 1.8,-5.2 2.8,-6.6 1.1,-1.3 2,-3.2 2,-4 0,-0.8 1.1,-3.4 2.4,-5.6 1.3,-2.3 2.7,-5.6 3.1,-7.4 0.4,-1.8 1.3,-3.6 2,-3.8 0.7,-0.3 1.9,-2.8 2.5,-5.6 0.7,-2.7 1.8,-5.2 2.5,-5.5 0.8,-0.2 1.6,-2.2 2,-4.3 0.4,-2.1 1.5,-4.6 2.5,-5.5 1,-0.9 2.2,-3.1 2.6,-4.9 0.3,-1.7 1.7,-4.9 3,-7.2 1.3,-2.2 2.4,-5 2.4,-6.1 0,-1.1 0.6,-2.6 1.4,-3.2 2.2,-1.9 5,-10.2 3.7,-11 -1.2,-0.8 -20.7,-0.4 -22,0.4 -0.5,0.2 -1.1,2.2 -1.5,4.4 -0.3,2.1 -1.3,4.1 -2.1,4.5 -1.3,0.5 -9.5,16.4 -9.5,18.5 0,0.5 -0.4,1.1 -0.8,1.3 -1,0.4 -8.4,16.2 -14.2,30.5 -0.7,1.6 -1.8,2.3 -3.5,2.3 -2.1,0 -2.9,-0.8 -4.2,-3.8 -0.8,-2 -2.6,-6.2 -4,-9.2 -1.4,-3 -3.4,-7.7 -4.6,-10.5 -1.2,-2.7 -4.3,-9.3 -6.9,-14.6 -2.7,-5.3 -4.8,-10.1 -4.8,-10.6 0,-0.5 -1.1,-1.9 -2.5,-3.1 -1.3,-1.2 -2.8,-3.4 -3.1,-4.9 -1.3,-4.9 -6.2,-8.6 -11.9,-8.9 -2.7,-0.2 -5.7,-0.1 -6.5,0.3 z"
       id="path20"
       style="fill:#cccccc;stroke:none;stroke-width:0.1" />
    <path
       d="m 1084,728 c -1.1,2 -1.1,12.2 -0.1,13.9 0.7,1.1 4.2,1.4 15.8,1.5 22.7,0.2 28.3,3.1 28.3,14.3 0,8.6 2.9,8.1 -50.1,8.5 l -46.7,0.3 -4.8,3.4 c -5.9,4.2 -5.7,4 -8.4,12 -1.9,5.3 -2.1,7.9 -1.8,15.5 0.7,13.3 3.2,18.5 11.2,23.4 l 6.1,3.7 h 49.5 49.5 l 5.9,-3.2 c 7.8,-4.4 10.6,-7.5 13.3,-15.3 2,-6 2.2,-8.3 2.3,-29.1 0,-20.5 -0.2,-23.1 -2.2,-29 -3.9,-11.7 -12,-18 -25.6,-19.8 -4.2,-0.6 -15.3,-1.2 -24.5,-1.3 -14.2,-0.3 -17,-0.1 -17.7,1.2 z m 43.7,53.4 c 0.4,0.8 0.6,5.5 0.3,10.4 -0.6,10.3 -1.7,12.2 -9.4,16 -4.2,2.1 -5.5,2.2 -36.3,2.2 -22.1,0 -32.2,-0.3 -33,-1.1 -0.6,-0.6 -2.2,-1.6 -3.4,-2.3 -5.9,-2.9 -4.3,-24.3 1.9,-25.9 0.9,-0.3 19.1,-0.5 40.4,-0.6 32.5,-0.1 38.8,0.1 39.5,1.3 z"
       id="path22"
       style="fill:#cccccc;stroke:none;stroke-width:0.1" />
    <path
       d="m 1286.2,728.1 c -6,0.6 -9.7,1.7 -13,3.6 -4.9,2.8 -10.2,8 -10.2,10 0,0.7 -0.8,1.6 -1.7,2.2 -1.7,0.9 -1.8,3.4 -1.8,30.3 v 29.3 l 2.6,4.5 c 2.9,5.1 8.2,11 9.8,11 1.4,0 5.4,2.2 6.3,3.5 1.2,1.7 48.9,3.4 54.6,1.9 2,-0.6 2.2,-1.2 2.2,-7.8 0,-4.3 -0.5,-7.7 -1.2,-8.4 -0.8,-0.8 -6.7,-1.2 -19.9,-1.2 -10.2,0 -20,-0.3 -21.7,-0.6 -4.8,-1 -8.5,-6.5 -9,-13.4 -0.3,-4.1 0,-5.9 1.1,-6.8 1.2,-1 13.5,-1.3 53.4,-1.5 l 51.8,-0.2 V 765 745.5 l -3,-5.8 c -1.6,-3.1 -3.5,-5.7 -4.1,-5.7 -0.6,0 -2.1,-0.9 -3.4,-2 -1.3,-1.1 -3.9,-2.5 -5.9,-3.1 -4.5,-1.5 -75,-2.1 -86.9,-0.8 z m 77,21.9 c 1,2.1 1.7,6 1.8,9.6 0,5 -0.4,6.4 -2.3,8.2 -2.2,2.1 -2.9,2.1 -39,2.2 -42.1,0.2 -40.7,0.5 -40.7,-7.9 0,-5.2 4.3,-14.7 6.9,-15.4 0.9,-0.3 17.3,-0.4 36.6,-0.3 l 35,0.1 z"
       id="path30"
       style="fill:#cccccc;stroke:none;stroke-width:0.1" />
    <path
       d="m 486.8,729 c -3.2,0.4 -6.5,1.4 -7.4,2.1 -1,0.8 -3.1,1.8 -4.8,2.4 -4.3,1.4 -11.6,10.7 -11.6,14.8 0,1.8 -0.7,5.9 -1.5,9.2 -1.1,4.8 -1.4,15.3 -1.5,51.2 v 45.2 l 2.3,0.7 c 1.2,0.4 5.9,0.8 10.4,0.8 11.9,0.2 12.3,-0.3 11.4,-13.5 -0.6,-8.5 -0.5,-11 0.8,-13.9 l 1.6,-3.5 40.5,-0.5 c 39.8,-0.5 40.6,-0.5 44.1,-2.8 2,-1.2 4.3,-2.2 5.2,-2.2 1.3,0 5.6,-4.3 9.9,-10 2.5,-3.4 3.3,-11.3 3.3,-33 0,-22.3 -0.8,-29.9 -3.5,-33 -1.1,-1.2 -2.2,-3.1 -2.5,-4.1 -0.4,-1.1 -1.3,-1.9 -2.1,-1.9 -0.8,0 -1.4,-0.4 -1.4,-1 0,-0.5 -3,-2.4 -6.7,-4.2 l -6.8,-3.2 -37,-0.2 c -20.3,-0.1 -39.6,0.1 -42.7,0.6 z m 69.6,19.2 c 0.7,1 2,1.8 2.9,1.8 0.8,0 2.6,1.3 4,3 3.1,3.7 4.2,12.9 3.5,30.1 -0.6,13.4 -1.3,15.3 -8.1,19.7 l -4.2,2.7 -33.5,0.3 c -20.4,0.1 -34.1,-0.2 -35,-0.8 -1.2,-0.7 -1.6,-4 -1.8,-16.8 -0.4,-21 0.8,-32.5 3.9,-35.8 1.2,-1.3 2.8,-2.4 3.5,-2.4 0.6,0 1.7,-0.6 2.4,-1.4 1.8,-2.3 3.7,-2.4 33.3,-2.2 25.3,0.1 28,0.3 29.1,1.8 z"
       id="path34"
       style="fill:#cccccc;stroke:none;stroke-width:0.1" />
    <path
       d="m 199.5,730.1 c -0.6,0.9 -0.7,93 -0.1,93.6 0.9,0.9 21.7,0.6 22.4,-0.3 0.4,-0.5 0.5,-21.8 0.2,-47.4 l -0.5,-46.4 -10.8,-0.1 c -6,0 -11,0.2 -11.2,0.6 z"
       id="path38"
       style="fill:#cccccc;stroke:none;stroke-width:0.1" />
  </g>
</svg>
