<?xml version="1.0" encoding="UTF-8" standalone="no"?>
<svg
   version="1.0"
   width="798"
   height="454"
   viewBox="0 0 598.5 340.5"
   preserveAspectRatio="xMidYMid meet"
   id="svg12"
   sodipodi:docname="aouk.svg"
   inkscape:version="1.1.1 (3bf5ae0d25, 2021-09-20, custom)"
   xmlns:inkscape="http://www.inkscape.org/namespaces/inkscape"
   xmlns:sodipodi="http://sodipodi.sourceforge.net/DTD/sodipodi-0.dtd"
   xmlns="http://www.w3.org/2000/svg"
   xmlns:svg="http://www.w3.org/2000/svg">
  <defs
     id="defs16" />
  <sodipodi:namedview
     id="namedview14"
     pagecolor="#ffffff"
     bordercolor="#666666"
     borderopacity="1.0"
     inkscape:pageshadow="2"
     inkscape:pageopacity="0.0"
     inkscape:pagecheckerboard="0"
     inkscape:document-units="px"
     showgrid="false"
     units="px"
     inkscape:zoom="0.7820601"
     inkscape:cx="476.30611"
     inkscape:cy="311.35715"
     inkscape:window-width="1350"
     inkscape:window-height="728"
     inkscape:window-x="6"
     inkscape:window-y="30"
     inkscape:window-maximized="1"
     inkscape:current-layer="svg12" />
  <g
     transform="matrix(0.05068543,0,0,-0.05068543,-74.907288,554.32615)"
     fill="#000000"
     stroke="none"
     id="g10"
     style="fill:#cccccc">
    <path
       d="m 2761,9158 c -4,-13 -51,-140 -104,-283 -53,-143 -324,-876 -603,-1630 -279,-753 -509,-1380 -512,-1393 l -4,-22 362,2 363,3 14,40 c 31,88 538,1640 631,1930 54,171 125,408 157,528 33,119 62,214 65,210 4,-5 19,-55 34,-113 80,-312 179,-631 485,-1565 l 337,-1030 354,-3 c 194,-1 357,1 360,5 4,5 -269,757 -606,1673 l -612,1665 -356,3 -356,2 z"
       id="path2"
       style="fill:#cccccc" />
    <path
       d="m 6067,8439 c -519,-43 -895,-322 -1053,-782 -110,-321 -107,-770 8,-1096 140,-398 443,-658 869,-747 116,-24 438,-30 579,-10 516,72 873,387 1000,880 40,159 54,305 47,514 -8,255 -46,437 -127,610 -181,386 -508,591 -1004,632 -142,11 -175,11 -319,-1 z m 311,-464 c 207,-49 342,-196 401,-435 32,-129 40,-217 41,-420 0,-490 -132,-761 -418,-850 -211,-66 -427,-18 -560,125 -144,154 -206,376 -205,735 0,259 29,410 106,570 40,82 150,195 228,233 106,53 284,71 407,42 z"
       id="path4"
       style="fill:#cccccc" />
    <path
       d="m 8010,7643 c 0,-957 7,-1071 81,-1283 59,-172 186,-331 333,-419 78,-47 211,-95 331,-121 146,-31 468,-39 620,-15 280,44 473,138 635,312 222,237 330,585 330,1067 0,367 -97,815 -248,1149 l -31,67 h -340 -340 l 50,-105 c 87,-182 173,-466 214,-705 25,-144 33,-319 24,-512 -20,-451 -107,-667 -306,-761 -62,-28 -78,-32 -188,-35 -103,-4 -129,-1 -184,18 -119,40 -182,98 -237,215 -68,148 -67,129 -71,1053 l -4,832 h -335 -334 z"
       id="path6"
       style="fill:#cccccc" />
    <path
       d="M 10880,7115 V 5830 h 335 335 l 1,418 v 417 l 150,124 c 82,68 151,122 153,120 1,-2 157,-246 345,-541 l 344,-538 h 354 c 281,0 353,3 347,13 -5,6 -223,338 -486,736 -292,444 -474,729 -469,735 9,12 787,959 853,1039 l 40,47 h -345 -346 l -468,-582 -468,-582 -3,582 -2,582 h -335 -335 z"
       id="path8"
       style="fill:#cccccc" />
  </g>
</svg>
