<?xml version="1.0" encoding="UTF-8" standalone="no"?>
<svg
   version="1.0"
   width="798"
   height="454"
   viewBox="0 0 598.5 340.5"
   preserveAspectRatio="xMidYMid meet"
   id="svg14"
   sodipodi:docname="dow.svg"
   inkscape:version="1.1.1 (3bf5ae0d25, 2021-09-20, custom)"
   xmlns:inkscape="http://www.inkscape.org/namespaces/inkscape"
   xmlns:sodipodi="http://sodipodi.sourceforge.net/DTD/sodipodi-0.dtd"
   xmlns="http://www.w3.org/2000/svg"
   xmlns:svg="http://www.w3.org/2000/svg">
  <defs
     id="defs18" />
  <sodipodi:namedview
     id="namedview16"
     pagecolor="#ffffff"
     bordercolor="#666666"
     borderopacity="1.0"
     inkscape:pageshadow="2"
     inkscape:pageopacity="0.0"
     inkscape:pagecheckerboard="0"
     inkscape:document-units="px"
     showgrid="false"
     units="px"
     inkscape:zoom="0.7820601"
     inkscape:cx="356.11074"
     inkscape:cy="178.37504"
     inkscape:window-width="1350"
     inkscape:window-height="728"
     inkscape:window-x="6"
     inkscape:window-y="30"
     inkscape:window-maximized="1"
     inkscape:current-layer="svg14" />
  <g
     transform="matrix(0.04340695,0,0,-0.04340695,-25.580056,501.71859)"
     fill="#000000"
     stroke="none"
     id="g12"
     style="fill:#cccccc">
    <path
       d="m 7400,9855 c -30,-12 -844,-289 -1010,-345 -80,-27 -485,-164 -1030,-350 -261,-89 -599,-203 -750,-255 -151,-51 -383,-130 -515,-175 -132,-45 -370,-126 -530,-180 -159,-54 -391,-133 -515,-175 -124,-42 -263,-89 -310,-105 -110,-37 -927,-315 -1565,-532 -275,-94 -510,-173 -522,-175 -32,-7 -29,-17 10,-30 17,-6 302,-107 632,-223 330,-117 674,-238 765,-270 91,-32 228,-81 305,-108 5078,-1796 5077,-1795 5119,-1785 23,6 158,51 301,101 143,50 431,149 640,222 209,72 430,149 490,170 61,21 234,81 385,134 287,98 349,120 770,266 140,49 426,148 635,220 209,72 436,151 505,175 139,48 450,156 1040,360 217,75 445,154 505,175 61,21 178,62 260,90 83,28 200,69 260,90 100,35 378,132 755,262 176,60 310,107 329,113 8,3 12,7 9,10 -3,4 -602,207 -1458,495 -471,159 -1040,350 -1660,560 -666,225 -1165,393 -1600,540 -80,27 -291,98 -470,158 -179,61 -640,216 -1024,346 -385,130 -704,235 -710,235 -6,-1 -27,-7 -46,-14 z M 5548,8462 c 289,-104 529,-405 604,-757 20,-97 15,-294 -10,-398 -87,-353 -379,-655 -683,-707 -43,-7 -298,-10 -774,-8 l -710,3 -3,51 -3,51 60,6 c 33,3 77,13 98,24 l 38,18 5,794 c 5,771 4,795 -14,813 -18,16 -88,35 -151,41 -28,2 -30,5 -33,50 l -3,48 758,-3 758,-3 z m 2223,-275 c 195,-51 332,-126 460,-252 177,-176 260,-414 231,-666 -14,-116 -53,-242 -103,-327 -43,-73 -197,-227 -271,-270 -220,-130 -535,-181 -836,-136 -392,58 -659,269 -752,594 -30,105 -38,289 -16,396 71,353 349,601 761,678 127,24 402,15 526,-17 z m 3697,-118 3,-55 -63,-12 c -41,-8 -70,-19 -84,-34 -12,-13 -76,-145 -143,-294 -66,-150 -132,-297 -146,-328 -152,-331 -265,-596 -265,-617 0,-34 14,-45 68,-54 l 42,-7 v -48 c 0,-34 -4,-50 -16,-54 -9,-3 -177,-6 -375,-6 h -359 v 55 c 0,51 2,55 23,55 12,0 33,7 45,16 42,29 39,38 -174,592 l -59,154 -32,-69 c -17,-37 -72,-158 -123,-268 -50,-110 -107,-235 -127,-278 -31,-66 -35,-81 -25,-102 12,-27 48,-45 88,-45 22,0 24,-3 24,-55 v -55 h -405 -405 v 55 54 l 38,7 c 60,10 82,29 82,71 0,22 -44,151 -116,337 -64,166 -142,369 -174,451 -139,361 -172,441 -185,454 -7,7 -34,16 -59,18 l -46,6 v 53 54 h 370 370 v -55 c 0,-51 -2,-55 -23,-55 -33,0 -67,-28 -67,-54 0,-39 248,-768 250,-735 0,4 40,118 89,255 49,137 114,319 144,404 31,85 59,163 62,173 7,16 29,17 264,17 h 257 l 49,-132 c 209,-566 284,-761 289,-748 113,292 286,755 286,765 0,25 -28,42 -79,49 l -51,7 v 54 55 l 353,2 c 193,2 363,3 377,3 23,0 25,-4 28,-56 z"
       id="path2"
       style="fill:#cccccc" />
    <path
       d="m 4610,7550 v -540 h 390 c 368,0 394,1 452,21 115,39 202,121 258,244 37,80 50,148 50,255 0,117 -13,177 -62,280 -50,104 -142,201 -233,246 l -60,29 -397,3 -398,3 z"
       id="path4"
       style="fill:#cccccc" />
    <path
       d="m 7298,7805 c -78,-19 -174,-68 -233,-118 -152,-130 -199,-354 -111,-531 129,-262 510,-363 813,-215 347,168 348,642 3,813 -42,20 -102,43 -135,51 -76,18 -262,18 -337,0 z"
       id="path6"
       style="fill:#cccccc" />
    <path
       d="m 11020,6076 c -105,-22 -199,-98 -243,-195 -33,-71 -31,-198 4,-272 34,-72 96,-134 168,-168 47,-22 70,-26 146,-26 76,0 98,4 145,26 298,142 241,579 -84,638 -69,13 -65,13 -136,-3 z m 192,-70 c 209,-101 208,-418 -1,-517 -57,-27 -167,-30 -224,-5 -51,22 -114,81 -140,130 -18,33 -22,58 -22,131 0,77 4,97 26,140 27,53 98,115 153,133 47,16 165,9 208,-12 z"
       id="path8"
       style="fill:#cccccc" />
    <path
       d="m 10962,5748 3,-193 28,-3 27,-3 v 85 86 h 38 c 36,0 38,-3 87,-85 46,-78 52,-84 83,-85 h 32 l -55,85 c -30,47 -55,88 -55,90 0,3 8,5 19,5 52,0 89,67 76,136 -10,58 -49,74 -178,74 h -107 z m 210,125 c 21,-19 23,-52 4,-78 -11,-15 -30,-20 -85,-23 l -71,-4 v 61 61 h 67 c 48,0 72,-5 85,-17 z"
       id="path10"
       style="fill:#cccccc" />
  </g>
</svg>
