<?xml version="1.0" encoding="UTF-8" standalone="no"?>
<svg
   version="1.0"
   width="600"
   height="454"
   viewBox="0 0 450 340.5"
   preserveAspectRatio="xMidYMid meet"
   id="svg36"
   sodipodi:docname="e9.svg"
   inkscape:version="1.1.1 (3bf5ae0d25, 2021-09-20, custom)"
   xmlns:inkscape="http://www.inkscape.org/namespaces/inkscape"
   xmlns:sodipodi="http://sodipodi.sourceforge.net/DTD/sodipodi-0.dtd"
   xmlns="http://www.w3.org/2000/svg"
   xmlns:svg="http://www.w3.org/2000/svg">
  <defs
     id="defs40" />
  <sodipodi:namedview
     id="namedview38"
     pagecolor="#ffffff"
     bordercolor="#666666"
     borderopacity="1.0"
     inkscape:pageshadow="2"
     inkscape:pageopacity="0.0"
     inkscape:pagecheckerboard="0"
     inkscape:document-units="px"
     showgrid="false"
     units="px"
     inkscape:zoom="0.7820601"
     inkscape:cx="459.68334"
     inkscape:cy="226.96465"
     inkscape:window-width="1350"
     inkscape:window-height="728"
     inkscape:window-x="6"
     inkscape:window-y="30"
     inkscape:window-maximized="1"
     inkscape:current-layer="svg36"
     width="600px" />
  <g
     transform="matrix(0.04373709,0,0,-0.04373709,-108.24972,506.67476)"
     fill="#000000"
     stroke="none"
     id="g34"
     style="fill:#cccccc">
    <path
       d="m 7775,11259 c -187,-4 -560,-12 -830,-18 -269,-6 -899,-11 -1398,-11 h -908 l 8,-357 c 19,-843 7,-1963 -33,-3054 -20,-567 -16,-1266 10,-1449 90,-646 346,-856 1123,-921 206,-18 1007,-17 1923,1 415,8 1168,15 1673,15 h 917 l -7,135 c -13,225 -9,2166 5,2590 7,212 20,594 28,850 19,530 15,1027 -10,1240 -58,509 -212,740 -576,868 -309,108 -795,136 -1925,111 z m -553,-611 c 32,-19 52,-41 67,-71 20,-41 21,-59 21,-328 0,-255 -2,-288 -19,-325 -22,-47 -59,-80 -110,-94 -24,-8 -355,-10 -1017,-8 l -980,3 -41,27 c -25,16 -48,43 -61,72 -21,43 -22,60 -22,323 0,304 4,328 63,381 57,53 28,51 1077,49 l 975,-2 z m 1943,-26 c 277,-77 435,-244 498,-528 l 22,-99 V 8320 c 0,-1342 -3,-1692 -13,-1759 -50,-315 -228,-511 -529,-583 -78,-18 -129,-21 -458,-25 -401,-5 -452,-1 -505,44 -56,47 -60,70 -60,352 0,247 1,259 23,301 15,31 35,51 66,67 42,22 54,23 290,23 256,1 299,7 343,47 49,44 53,65 56,298 4,253 -1,312 -31,356 -45,68 -66,73 -322,80 -264,8 -333,21 -464,89 -182,95 -285,241 -337,480 -18,79 -19,145 -19,985 0,966 0,971 52,1124 65,191 188,319 374,391 140,54 197,59 584,56 325,-2 356,-4 430,-24 z M 6673,9385 c 181,-31 311,-97 427,-214 86,-88 143,-191 182,-331 22,-83 23,-96 23,-510 0,-412 -1,-428 -23,-510 -82,-302 -274,-481 -587,-546 -42,-8 -159,-17 -290,-20 -234,-6 -269,-12 -315,-50 -66,-56 -81,-211 -27,-292 51,-78 39,-76 607,-82 l 505,-5 47,-27 c 32,-19 52,-41 67,-71 20,-41 21,-59 21,-328 0,-255 -2,-288 -19,-325 -22,-47 -59,-80 -110,-95 -24,-7 -250,-9 -701,-7 -650,4 -667,4 -745,26 -285,79 -457,253 -537,543 l -23,84 v 1060 c 0,1012 1,1063 19,1135 82,318 283,506 605,564 113,21 758,21 874,1 z"
       id="path2"
       style="fill:#cccccc" />
    <path
       d="m 8604,9840 c -26,-13 -49,-35 -65,-63 l -24,-42 -3,-638 c -2,-416 1,-651 8,-676 5,-21 20,-51 32,-66 50,-64 167,-84 248,-42 52,26 78,59 90,113 14,57 13,1255 -1,1308 -12,50 -48,93 -95,112 -50,21 -141,18 -190,-6 z"
       id="path4"
       style="fill:#cccccc" />
    <path
       d="m 6181,8630 c -40,-10 -77,-36 -105,-74 -19,-25 -21,-44 -24,-241 -3,-198 -2,-216 17,-253 11,-22 35,-51 53,-64 28,-20 45,-23 118,-23 73,0 90,3 118,23 65,47 72,77 72,301 0,117 -4,211 -11,228 -13,34 -45,70 -80,88 -34,18 -116,26 -158,15 z"
       id="path6"
       style="fill:#cccccc" />
    <path
       d="m 10411,4802 c -68,-37 -91,-129 -48,-193 60,-90 181,-88 237,4 72,117 -68,256 -189,189 z m 138,-42 c 45,-46 45,-108 0,-156 -75,-80 -198,2 -168,111 21,76 112,101 168,45 z"
       id="path8"
       style="fill:#cccccc" />
    <path
       d="m 10430,4680 c 0,-56 3,-70 15,-70 9,0 15,9 15,25 0,14 4,25 8,25 5,0 15,-11 22,-25 7,-14 22,-25 33,-25 18,0 19,1 2,26 -15,23 -15,27 -1,43 35,39 12,71 -51,71 h -43 z m 65,30 c 0,-22 -29,-18 -33,3 -3,14 1,18 15,15 10,-2 18,-10 18,-18 z"
       id="path10"
       style="fill:#cccccc" />
    <path
       d="m 5125,4568 c -11,-6 -32,-22 -47,-36 l -28,-26 v 32 32 h -80 -80 v -265 -265 h 79 80 l 3,169 c 3,154 5,172 24,198 18,23 30,28 72,31 49,3 53,1 72,-30 18,-30 20,-50 20,-200 v -168 h 81 81 l -4,208 c -3,199 -4,209 -28,251 -34,59 -77,81 -160,81 -36,0 -74,-6 -85,-12 z"
       id="path12"
       style="fill:#cccccc" />
    <path
       d="m 5705,4568 c -11,-6 -32,-22 -47,-36 l -28,-26 v 32 32 h -80 -80 l 2,-262 3,-263 78,-3 77,-3 v 148 c 0,215 16,253 107,253 38,0 46,-4 63,-32 18,-29 20,-51 20,-200 v -168 h 81 81 l -4,213 c -3,201 -4,214 -26,249 -36,58 -77,78 -158,78 -38,0 -78,-6 -89,-12 z"
       id="path14"
       style="fill:#cccccc" />
    <path
       d="m 6215,4556 c -55,-25 -119,-90 -141,-142 -23,-55 -18,-170 10,-230 91,-195 412,-206 523,-17 25,43 28,57 28,138 0,101 -12,134 -73,198 -74,77 -241,103 -347,53 z m 205,-131 c 38,-20 60,-63 60,-117 0,-55 -17,-87 -59,-115 -134,-91 -278,94 -166,213 29,30 38,34 84,34 29,0 65,-7 81,-15 z"
       id="path16"
       style="fill:#cccccc" />
    <path
       d="m 7385,4559 c -27,-10 -61,-28 -75,-39 l -25,-19 41,-42 41,-41 42,28 c 61,40 128,40 170,0 46,-44 42,-66 -11,-66 -110,0 -229,-34 -275,-79 -56,-53 -52,-169 7,-223 69,-63 217,-62 286,3 l 22,21 4,-28 c 3,-29 3,-29 73,-29 h 70 v 195 c -1,179 -2,198 -22,235 -42,80 -95,105 -215,104 -58,0 -98,-6 -133,-20 z m 225,-314 c 0,-46 -23,-81 -62,-94 -74,-26 -138,-3 -138,49 0,47 60,77 158,79 42,1 42,1 42,-34 z"
       id="path18"
       style="fill:#cccccc" />
    <path
       d="m 8716,4560 c -188,-73 -227,-345 -68,-467 160,-122 423,-53 473,124 40,145 -17,278 -146,339 -65,31 -185,33 -259,4 z m 220,-154 c 31,-31 34,-40 34,-90 0,-70 -19,-108 -64,-130 -48,-22 -97,-20 -137,7 -41,27 -59,60 -59,108 0,92 46,139 139,139 47,0 57,-4 87,-34 z"
       id="path20"
       style="fill:#cccccc" />
    <path
       d="m 9427,4559 c -21,-11 -41,-27 -44,-34 -9,-25 -23,-16 -23,15 v 30 h -75 -75 v -265 -265 h 79 80 l 3,174 c 3,170 4,175 28,201 20,22 32,25 69,23 34,-2 48,-9 64,-30 18,-25 21,-46 25,-198 l 5,-170 h 79 80 l -4,198 c -5,205 -12,247 -52,290 -34,39 -71,52 -138,52 -43,-1 -75,-7 -101,-21 z"
       id="path22"
       style="fill:#cccccc" />
    <path
       d="m 9904,4561 c -91,-41 -129,-157 -78,-238 18,-29 79,-60 146,-74 72,-15 108,-35 108,-60 0,-44 -106,-50 -162,-9 -16,12 -32,20 -36,18 -4,-2 -27,-24 -51,-50 l -43,-48 23,-20 c 38,-31 97,-45 194,-45 76,0 98,4 139,25 71,36 91,67 91,145 0,95 -35,126 -173,160 -95,23 -120,46 -86,79 21,22 82,20 120,-3 l 32,-19 46,47 c 45,45 46,48 28,64 -53,48 -220,64 -298,28 z"
       id="path24"
       style="fill:#cccccc" />
    <path
       d="m 4660,4305 v -266 l 78,3 77,3 3,263 2,262 h -80 -80 z"
       id="path26"
       style="fill:#cccccc" />
    <path
       d="m 6650,4568 c 0,-2 21,-53 46,-113 25,-61 70,-170 100,-244 77,-189 61,-171 158,-171 h 84 l 47,123 c 26,67 74,186 105,265 l 58,142 h -82 -81 l -54,-157 c -55,-162 -70,-198 -77,-191 -2,3 -32,81 -68,174 l -64,169 -86,3 c -47,1 -86,1 -86,0 z"
       id="path28"
       style="fill:#cccccc" />
    <path
       d="m 7832,4508 3,-63 53,-3 52,-3 v -205 -204 h 80 80 v 205 205 h 70 70 v 65 65 h -205 -206 z"
       id="path30"
       style="fill:#cccccc" />
    <path
       d="m 8312,4308 3,-263 h 80 80 l 3,263 2,262 h -85 -85 z"
       id="path32"
       style="fill:#cccccc" />
  </g>
</svg>
