<?xml version="1.0" encoding="UTF-8" standalone="no"?>
<svg
   version="1.0"
   width="798"
   height="250"
   viewBox="0 0 598.49997 187.50001"
   preserveAspectRatio="xMidYMid meet"
   id="svg32"
   sodipodi:docname="evolutionup.svg"
   inkscape:version="1.1.1 (3bf5ae0d25, 2021-09-20, custom)"
   xmlns:inkscape="http://www.inkscape.org/namespaces/inkscape"
   xmlns:sodipodi="http://sodipodi.sourceforge.net/DTD/sodipodi-0.dtd"
   xmlns="http://www.w3.org/2000/svg"
   xmlns:svg="http://www.w3.org/2000/svg">
  <defs
     id="defs36" />
  <sodipodi:namedview
     id="namedview34"
     pagecolor="#ffffff"
     bordercolor="#666666"
     borderopacity="1.0"
     inkscape:pageshadow="2"
     inkscape:pageopacity="0.0"
     inkscape:pagecheckerboard="0"
     inkscape:document-units="px"
     showgrid="true"
     inkscape:zoom="1.2902344"
     inkscape:cx="399.53981"
     inkscape:cy="104.24463"
     inkscape:window-width="1350"
     inkscape:window-height="728"
     inkscape:window-x="6"
     inkscape:window-y="30"
     inkscape:window-maximized="1"
     inkscape:current-layer="svg32"
     units="px"
     inkscape:lockguides="false"
     height="250px">
    <inkscape:grid
       type="xygrid"
       id="grid705" />
  </sodipodi:namedview>
  <g
     transform="matrix(0.1928934,0,0,-0.19299384,-9.3274103,163.01281)"
     fill="#000000"
     stroke="none"
     id="g30"
     style="fill:#cccccc">
    <path
       d="m 990,359 c 0,-72 5,-139 10,-150 10,-19 59,-49 80,-49 5,0 10,18 10,40 0,22 -4,40 -10,40 -6,0 -10,48 -10,125 v 125 h -40 -40 z"
       id="path2"
       style="fill:#cccccc" />
    <path
       d="m 1422,355 c 3,-130 4,-135 29,-161 18,-18 41,-28 73,-31 l 46,-6 v 41 c 0,39 -2,41 -32,44 -33,3 -33,4 -36,61 l -3,57 h 36 c 34,0 35,1 35,40 0,39 -1,40 -35,40 -31,0 -35,3 -35,25 0,23 -4,25 -41,25 h -41 z"
       id="path4"
       style="fill:#cccccc" />
    <path
       d="m 1600,470 c 0,-17 7,-20 40,-20 33,0 40,3 40,20 0,17 -7,20 -40,20 -33,0 -40,-3 -40,-20 z"
       id="path6"
       style="fill:#cccccc" />
    <path
       d="m 2430,365 c 0,-71 5,-135 11,-149 18,-39 71,-59 147,-54 56,4 68,8 88,32 23,26 24,35 24,162 v 134 h -35 -35 V 378 c 0,-62 -4,-119 -9,-126 -5,-9 -25,-12 -57,-10 l -49,3 -3,123 -3,122 h -39 -40 z"
       id="path8"
       style="fill:#cccccc" />
    <path
       d="M 3040,365 V 240 h 40 40 v 125 125 h -40 -40 z"
       id="path10"
       style="fill:#cccccc" />
    <path
       d="M 140,422 C 91,398 79,368 82,287 c 3,-58 8,-71 31,-95 26,-26 33,-27 137,-30 l 110,-4 v 41 40 l -97,3 -98,3 v 55 55 h 55 c 60,0 60,0 45,-63 l -7,-33 38,3 c 34,3 39,6 52,47 28,83 -20,131 -133,131 -22,0 -56,-8 -75,-18 z"
       id="path12"
       style="fill:#cccccc" />
    <path
       d="m 394,425 c -3,-8 -4,-57 -2,-110 3,-88 5,-97 31,-122 23,-24 36,-28 83,-28 48,0 59,4 79,27 20,24 57,124 80,221 7,26 6,27 -32,27 h -40 l -30,-97 c -29,-95 -31,-98 -59,-98 h -29 l -3,98 -3,97 h -35 c -21,0 -37,-6 -40,-15 z"
       id="path14"
       style="fill:#cccccc" />
    <path
       d="m 742,426 c -45,-21 -66,-73 -59,-150 4,-46 11,-65 31,-85 24,-24 34,-26 107,-26 78,0 81,1 110,33 26,29 29,39 29,102 0,62 -3,73 -28,101 -24,27 -35,31 -92,35 -44,3 -76,0 -98,-10 z M 875,300 v -55 h -55 -55 l -3,44 c -5,67 0,72 60,69 l 53,-3 z"
       id="path16"
       style="fill:#cccccc" />
    <path
       d="m 1120,340 c 0,-54 5,-110 11,-124 18,-39 71,-59 147,-54 56,4 68,8 88,32 22,25 24,36 24,137 v 109 h -35 -35 v -87 c 0,-49 -4,-94 -9,-101 -5,-9 -25,-12 -57,-10 l -49,3 -3,98 -3,97 h -39 -40 z"
       id="path18"
       style="fill:#cccccc" />
    <path
       d="m 1770,429 c -46,-18 -60,-47 -60,-127 0,-40 5,-82 10,-93 36,-66 214,-66 250,0 15,29 12,148 -5,180 -8,16 -28,34 -46,40 -39,13 -115,13 -149,0 z m 128,-131 3,-58 h -56 -55 v 53 c 0,30 3,57 7,61 4,4 28,6 53,4 l 45,-3 z"
       id="path20"
       style="fill:#cccccc" />
    <path
       d="m 2083,433 c -12,-2 -34,-18 -48,-34 -23,-28 -25,-38 -25,-135 V 160 h 40 39 l 3,98 3,97 h 55 55 l 3,-97 3,-98 h 39 40 v 90 c 0,113 -16,155 -64,175 -33,14 -94,17 -143,8 z"
       id="path22"
       style="fill:#cccccc" />
    <path
       d="m 2792,426 c -49,-23 -62,-64 -62,-201 V 110 h 40 39 l 3,122 3,123 h 55 55 v -55 -55 l -42,-3 -43,-3 v -41 -40 l 57,4 c 48,4 61,10 86,38 28,31 29,36 25,106 -3,64 -7,78 -29,100 -22,21 -38,27 -90,30 -43,3 -75,0 -97,-10 z"
       id="path24"
       style="fill:#cccccc" />
    <path
       d="M 1600,290 V 160 h 40 40 v 130 130 h -40 -40 z"
       id="path26"
       style="fill:#cccccc" />
    <path
       d="m 3040,190 c 0,-28 2,-30 40,-30 38,0 40,2 40,30 0,28 -2,30 -40,30 -38,0 -40,-2 -40,-30 z"
       id="path28"
       style="fill:#cccccc" />
  </g>
</svg>
